<svg width="42" height="42" viewBox="0 0 42 42" fill="none" xmlns="http://www.w3.org/2000/svg">
<path d="M23.7482 36.5121L21.9271 38.3332C21.1561 39.1043 19.9092 39.1043 19.1463 38.3332L3.19941 22.3945C2.42832 21.6234 2.42832 20.3766 3.19941 19.6137L19.1463 3.66679C19.9174 2.8957 21.1643 2.8957 21.9271 3.66679L23.7482 5.48788C24.5275 6.26718 24.5111 7.53867 23.7154 8.30156L13.8307 17.7187H37.4064C38.4975 17.7187 39.3752 18.5965 39.3752 19.6875V22.3125C39.3752 23.4035 38.4975 24.2812 37.4064 24.2812H13.8307L23.7154 33.6984C24.5193 34.4613 24.5357 35.7328 23.7482 36.5121Z" fill="#E1231D"/>
</svg>
